<svg width="50" height="50" viewBox="0 0 50 50" fill="none" xmlns="http://www.w3.org/2000/svg">
<path d="M18.75 45.8333C18.1974 45.8333 17.6675 45.6138 17.2768 45.2231C16.8861 44.8324 16.6666 44.3025 16.6666 43.75V37.5H8.33329C7.22822 37.5 6.16842 37.061 5.38701 36.2796C4.60561 35.4982 4.16663 34.4384 4.16663 33.3333V8.33329C4.16663 7.22822 4.60561 6.16842 5.38701 5.38701C6.16842 4.60561 7.22822 4.16663 8.33329 4.16663H41.6666C42.7717 4.16663 43.8315 4.60561 44.6129 5.38701C45.3943 6.16842 45.8333 7.22822 45.8333 8.33329V33.3333C45.8333 34.4384 45.3943 35.4982 44.6129 36.2796C43.8315 37.061 42.7717 37.5 41.6666 37.5H28.9583L21.25 45.2291C20.8333 45.625 20.3125 45.8333 19.7916 45.8333H18.75ZM20.8333 33.3333V39.75L27.25 33.3333H41.6666V8.33329H8.33329V33.3333H20.8333Z" fill="#F8FAFC"/>
</svg>
