<?xml version="1.0" encoding="UTF-8" standalone="no"?>
<svg xmlns="http://www.w3.org/2000/svg" xmlns:xlink="http://www.w3.org/1999/xlink" width="800" height="280" version="1.0">
  <defs>
    <radialGradient xlink:href="#a" id="c" cx="317.61594" cy="303.7291" r="379.17358" fx="317.61594" fy="303.7291" gradientTransform="matrix(.71718 .1266 -.02398 .13583 97.111293 222.26447)" gradientUnits="userSpaceOnUse" spreadMethod="reflect"/>
    <radialGradient xlink:href="#b" id="d" cx="280.59381" cy="-542.66449" r="372.10938" fx="280.59381" fy="-542.66449" gradientTransform="matrix(1 0 0 .27414 0 272.3367)" gradientUnits="userSpaceOnUse" spreadMethod="reflect"/>
    <linearGradient id="a">
      <stop offset="0" stop-color="#646464"/>
      <stop offset="1" stop-opacity="0"/>
    </linearGradient>
    <linearGradient id="b">
      <stop offset="0" stop-color="#646464"/>
      <stop offset=".29303831" stop-color="#c8c8c8"/>
      <stop offset=".9733811" stop-color="#646464"/>
      <stop offset="1" stop-color="#c8c8c8"/>
    </linearGradient>
  </defs>
  <g font-family="Motter Tektura Cyrilic" font-size="144" font-weight="400" transform="matrix(1.59445 0 0 1.639 50.857049 85.455301)">
    <path fill="url(#c)" d="M-4.4192208 250.15061H69.910886v107.15698H29.783359v-75.89712H7.6172878c-7.26240187.00008-13.281622 2.05562-18.0576798 6.16664-4.776162 4.11117-7.164217 9.40859-7.164171 15.89228-.000046 6.36722 2.452157 11.72205 7.356616 16.06455 4.9043528 4.34256 10.98577712 6.51382 18.2442915 6.51378H20.610186v31.25987H-4.0401648c-15.1584242 0-28.5342532-5.55712-40.1275272-16.6714-11.593311-11.11423-17.389958-23.61975-17.389955-37.5166-.000003-14.0098 5.509922-26.34043 16.529789-36.9919 11.019829-10.65129 24.556028-15.97697 40.6086372-15.97708zM82.384768 388.56746V250.15061h75.677212c15.41099.00011 28.62645 5.29753 39.64642 15.89228 11.01972 10.59493 16.52965 23.475 16.52979 38.64022-.00014 14.70599-5.54116 27.15322-16.6231 37.34171-11.08216 10.18852-24.52312 15.28277-40.32288 15.28277H131.6913v-31.25987h11.46501c7.64326.00004 14.07653-1.96805 19.29981-5.90427 5.22312-3.93616 7.83473-9.0313 7.83482-15.28543-.00009-6.02083-2.48437-11.34741-7.45285-15.97974-5.34964-4.97847-11.91022-7.46773-19.68178-7.46781h-20.63818v107.15699H82.384768zm139.959402 0V250.15061h75.67721c15.41099.00011 28.62645 5.29753 39.64642 15.89228 11.01973 10.59493 16.52966 23.475 16.52979 38.64022-.00013 14.70599-5.54115 27.15322-16.62309 37.34171-11.08217 10.18852-24.52313 15.28277-40.32288 15.28277H271.6507v-31.25987h11.46501c7.64326.00004 14.07654-1.96805 19.29982-5.90427 5.22312-3.93616 7.83472-9.0313 7.83482-15.28543-.0001-6.02083-2.48437-11.34741-7.45285-15.97974-5.34964-4.97847-11.91023-7.46773-19.68179-7.46781h-20.63817v107.15699h-40.13337zm139.9594-169.67672h40.13337v138.41685h-40.13337V218.89074zm182.80448 107.15698v31.25987h-67.83949c-18.0898 0-33.44061-4.74709-46.05247-14.24131-13.5022-10.19025-20.25329-23.44751-20.25329-39.77179 0-13.8932 6.62473-26.22382 19.87423-36.9919 13.24945-10.76789 28.79077-16.15187 46.62398-16.15198h67.64704v31.25986l-26.74973 35.60592h-45.48098l28.27763-35.60592h-20.63235c-7.64728.00008-13.82688 2.02647-18.5388 6.07919-4.712 4.05286-7.06798 9.20629-7.06794 15.46033-.00004 6.59687 2.48424 12.09571 7.45283 16.4965 4.96851 4.40086 11.0198 6.60127 18.15391 6.60123h64.58543zm49.98042-81.30207h-22.83793v-25.8549h58.62653V357.3622h-58.62653v-25.85491h22.83793v-86.76164zm78.86311 0h22.83793v-25.8549h-58.62653V357.3622h58.62653v-25.85491h-22.83793v-86.76164z" style="text-align:start;line-height:100%;-inkscape-font-specification:Motter Tektura Cyrilic" transform="translate(110.7575 -121.45104) scale(.49991)"/>
    <path fill="#fff" d="M366.5 223.09375V353.125h31.75V223.09375H366.5zm209.9375 0v17.46875h18.65625c2.3125.00047 4.18703 1.875 4.1875 4.1875v86.75c-.00047 2.3125-1.875 4.18703-4.1875 4.1875H576.4375v17.5h50.25V223.09375h-50.25zm65.90625 0V353.1875h50.25v-17.5H673.9375c-2.3125-.00047-4.18703-1.875-4.1875-4.1875v-86.75c.00047-2.3125 1.875-4.18703 4.1875-4.1875h18.65625v-17.46875h-50.25zm-646.75 31.25c-15.127804.0001-27.431846 4.83837-37.71875 14.78125-10.359513 10.01319-15.250002 21.08853-15.25 34-.000003 12.729 5.158205 23.95514 16.125 34.46875C-30.313257 348.07862-18.16317 353.125-4.03125 353.125H16.4375V330.25H8c-8.10041227.00004-15.3621313-2.57403-21.03125-7.59375-5.667291-5.01793-8.750054-11.75064-8.75-19.1875-.000053-7.50862 3.018541-14.2679 8.625-19.09375 5.5751918-4.79888 12.73264431-7.15615 20.78125-7.15625h22.15625c2.312498.00047 4.187031 1.875 4.1875 4.1875V353.125h31.75v-98.78125h-70.125zm90.96875 0V384.375h31.78125V281.40625c.00047-2.3125 1.875-4.18703 4.1875-4.1875h20.625c8.66615.00009 16.44035 2.92547 22.53125 8.59375 5.63112 5.25014 8.78114 11.86557 8.78125 19.03125-.00011 7.41-3.3823 14.06947-9.46875 18.65625-6.00945 4.52867-13.48085 6.75003-21.84375 6.75H135.875v22.875h21.40625c14.89983 0 27.1499-4.67201 37.5-14.1875 10.34287-9.509 15.28112-20.59632 15.28125-34.25-.00013-14.15058-4.9513-25.72329-15.25-35.625-10.31433-9.91634-22.29557-14.71864-36.75-14.71875h-71.5zm139.96875 0V384.375h31.75V281.40625c.00047-2.3125 1.875-4.18703 4.1875-4.1875H283.125c8.66615.00009 16.44036 2.92546 22.53125 8.59375 5.63112 5.25014 8.78114 11.86557 8.78125 19.03125-.00012 7.42394-3.41996 14.0743-9.5 18.65625-6.00304 4.52384-13.44961 6.75003-21.8125 6.75h-7.28125v22.875H297.25c14.89982 0 27.11578-4.66936 37.46875-14.1875 10.34287-9.509 15.28112-20.59632 15.28125-34.25-.00012-14.15058-4.95128-25.72329-15.25-35.625-10.31718-9.91908-22.26433-14.71864-36.71875-14.71875h-71.5zm250.9375 0c-16.98964.0001-31.43262 5.03058-43.96875 15.21875-12.56774 10.214-18.34375 21.157-18.34375 33.71875 0 15.1702 5.95109 26.89595 18.59375 36.4375 11.84333 8.91567 26.17546 13.40625 43.53125 13.40625h63.625V330.25h-60.375c-8.00457.00004-15.22936-2.63152-20.9375-7.6875-5.7436-5.08724-8.87506-11.96995-8.875-19.625-.00005-7.30339 3.01654-13.88171 8.53125-18.625 5.5626-4.78439 12.88888-7.09365 21.28125-7.09375h20.625c1.60316.00306 3.06392.92096 3.76219 2.36406.69827 1.4431.51154 3.15818-.48094 4.41719l-22.90625 28.84375h34.75l24.625-32.8125v-25.6875h-63.4375z" style="text-align:start;line-height:100%;-inkscape-font-specification:Motter Tektura Cyrilic" transform="translate(110.41061 -121.80363) scale(.49991)"/>
    <path fill="url(#d)" d="M366.125 222.71875V353.5h32.5V222.71875h-32.5zm209.9375 0v18.21875h19.03125c1.01206-.00303 1.98355.39767 2.69919 1.11331.71564.71564 1.11634 1.68713 1.11331 2.69919v86.75c.00303 1.01206-.39767 1.98355-1.11331 2.69919-.71564.71564-1.68713 1.11634-2.69919 1.11331H576.0625v18.25h51V222.71875h-51zm65.90625 0V353.5625h51v-18.25H673.9375c-1.01206.00303-1.98355-.39767-2.69919-1.11331-.71564-.71564-1.11634-1.68713-1.11331-2.69919v-86.75c-.00303-1.01206.39767-1.98355 1.11331-2.69919.71564-.71564 1.68713-1.11634 2.69919-1.11331h19.03125v-18.21875h-51zm-646.375 31.25c-15.213301.0001-27.614088 4.86663-37.96875 14.875-10.420562 10.0722-15.375002 21.26824-15.375 34.28125-.000003 12.83696 5.194035 24.18086 16.21875 34.75 10.997438 10.54306 23.273181 15.625 37.5 15.625H16.8125v-23.625H8c-8.02257989.00004-15.1828329-2.54288-20.78125-7.5-5.596768-4.95548-8.625053-11.56828-8.625-18.90625-.000053-7.41387 2.970301-14.02147 8.5-18.78125 5.5013129-4.73529 12.55532786-7.09365 20.53125-7.09375h22.15625c1.012063-.00303 1.983548.39767 2.699188 1.11331.71564.71564 1.11634 1.68713 1.113312 2.69919V353.5h32.5v-99.53125h-70.5zm90.59375 0V384.75h32.53125V281.40625c-.00303-1.01206.39767-1.98355 1.11331-2.69919.71564-.71564 1.68713-1.11634 2.69919-1.11331h20.625c8.58345.00009 16.25888 2.89549 22.28125 8.5 5.56986 5.19302 8.65614 11.69016 8.65625 18.75-.00011 7.30314-3.33712 13.81712-9.34375 18.34375-5.93677 4.4739-13.29738 6.68753-21.59375 6.6875H135.5V353.5h21.78125c14.98303 0 27.36347-4.70354 37.78125-14.28125 10.4112-9.57182 15.37487-20.78028 15.375-34.53125-.00013-14.24438-4.97839-25.94045-15.34375-35.90625-10.37956-9.97905-22.48839-14.81239-37.03125-14.8125h-71.875zm139.96875 0V384.75h32.5V281.40625c-.00303-1.01206.39767-1.98355 1.11331-2.69919.71564-.71564 1.68713-1.11634 2.69919-1.11331H283.125c8.58345.00009 16.25889 2.89548 22.28125 8.5 5.56986 5.19302 8.65614 11.69016 8.65625 18.75-.00012 7.3158-3.37419 13.82151-9.375 18.34375-5.93096 4.46952-13.26614 6.68753-21.5625 6.6875h-7.65625V353.5H297.25c14.98302 0 27.32961-4.70113 37.75-14.28125 10.4112-9.57182 15.37487-20.78028 15.375-34.53125-.00012-14.24438-4.97838-25.94045-15.34375-35.90625-10.38215-9.98154-22.45715-14.81239-37-14.8125h-71.875zm251.3125 0c-17.06763.00011-31.61668 5.03949-44.21875 15.28125-12.63077 10.26523-18.46875 21.34641-18.46875 34.03125 0 15.27689 5.99662 27.14848 18.71875 36.75C445.41438 349.00041 459.8576 353.5 477.28125 353.5h64v-23.625h-60.75c-7.92409.00004-15.04774-2.59834-20.6875-7.59375-5.67195-5.02378-8.75006-11.78653-8.75-19.34375-.00005-7.20638 2.96574-13.63304 8.40625-18.3125 5.48395-4.71675 12.70776-7.03115 21.03125-7.03125h20.625c1.46572-.00387 2.80309.83533 3.43714 2.15682.63404 1.32149.4518 2.8898-.46839 4.03068l-23.375 29.4375h35.71875l24.8125-33.0625v-26.1875h-63.8125z" style="text-align:start;line-height:100%;-inkscape-font-specification:Motter Tektura Cyrilic" transform="translate(110.41073 -121.70377) scale(.49991)"/>
  </g>
  <g fill-rule="evenodd" transform="translate(17.746181 -230.11468) scale(.48914)">
    <path fill="green" stroke="green" d="M185.88236 946.36298c7.47-.45536 17.25692-1.85203 39.55817 10.75708 80.69605 33.76877 118.71228-54.08983 146.58723-114.29252-48.97204-24.24059-111.47395-107.66196-15.67218-187.59672-22.45339-27.69513-53.37882-42.32012-88.23611-42.86864-16.70407-.18585-33.79221 2.4776-47.4901 9.69428-15.33715 8.08032-26.96241 10.14898-28.0188 10.29956-1.05639.15058-12.75718.09472-13.81357-.05586-1.05639-.15058-16.69326-1.90362-29.09023-8.51385-13.66185-7.28467-29.7146-11.66584-46.41867-11.47999-128.486116 1.42957-174.327886 191.30014-35.308406 337.43428 20.16385 21.19578 60.419096 17.25668 77.987346 7.3236 22.30125-12.60911 32.03657-10.22093 39.91532-10.70122z"/>
    <path fill="#ff0" stroke="#ff0" d="M5.625 668.78125C-35.138308 736.41223-24.332221 852.72531 67.96875 949.75c20.163843 21.19578 60.43175 17.24558 78 7.3125 22.30125-12.60912 32.0275-10.20721 39.90625-10.6875 7.47001-.45536 17.26125-1.85911 39.5625 10.75 80.69605 33.76877 118.7188-54.10981 146.59375-114.3125-46.2103-22.87353-104.44183-98.42134-30.375-174.03125H5.625z"/>
    <path fill="#f60" stroke="#f60" d="M-14.875 728.0625C-24.515465 793.77758-1.0846583 877.16262 67.96875 949.75c20.163843 21.19578 60.43175 17.24558 78 7.3125 22.30125-12.60912 32.0275-10.20721 39.90625-10.6875 7.47001-.45536 17.26125-1.85911 39.5625 10.75 80.69605 33.76877 118.7188-54.10981 146.59375-114.3125-33.93022-16.79505-74.32474-61.97955-64.09375-114.75H-14.875z"/>
    <path fill="red" stroke="red" d="M-14.9375 786.625c7.0708126 52.87816 33.132389 110.80384 82.90625 163.125 20.163843 21.19578 60.43175 17.24558 78 7.3125 22.30125-12.60912 32.0275-10.20721 39.90625-10.6875 7.47001-.45536 17.26125-1.85911 39.5625 10.75 80.69605 33.76877 118.7188-54.10981 146.59375-114.3125-20.3004-10.04845-42.91466-30.26418-55.625-56.1875H-14.9375z"/>
    <path fill="purple" stroke="purple" d="M1.4375 848.0625c13.749643 34.35335 35.538913 69.10906 66.53125 101.6875 20.163843 21.19578 60.43175 17.24558 78 7.3125 22.30125-12.60912 32.0275-10.20721 39.90625-10.6875 7.47001-.45536 17.26125-1.85911 39.5625 10.75 78.41444 32.81399 116.51816-49.15828 144.1875-109.0625H1.4375z"/>
    <path fill="#00f" stroke="#00f" d="M33.9375 908.09375c9.803311 14.13886 21.121475 28.08579 34.03125 41.65625 20.163843 21.19578 60.43175 17.24558 78 7.3125 22.30125-12.60912 32.0275-10.20721 39.90625-10.6875 7.47001-.45536 17.26125-1.85911 39.5625 10.75 53.19968 22.2624 87.85763-8.34351 113.28125-49.03125H33.9375z"/>
    <path fill="green" stroke="green" d="M266.93281 504.35442c-2.56775 74.06312-39.26996 103.58961-92.17642 111.8744 1.11889-62.18791 31.79526-99.52067 92.17642-111.8744z"/>
  </g>
</svg>