<svg enable-background="new 2.472168 0.6079102 167 36" height="146.822635" viewBox="2.472168 .6079102 167 36" width="681.093891" xmlns="http://www.w3.org/2000/svg" xmlns:xlink="http://www.w3.org/1999/xlink"><radialGradient id="a" cx="23.689831" cy="12.765525" gradientTransform="matrix(0 1.8458161 -1.5756108 0 41.660507 -29.484015)" gradientUnits="userSpaceOnUse" r="14.35" xlink:href="#b"/><linearGradient id="b"><stop offset="0" stop-color="#fff"/><stop offset="1" stop-color="#fff" stop-opacity="0"/></linearGradient><radialGradient id="c" cx="23.689831" cy="12.765525" gradientTransform="matrix(0 1.152526 -.98381007 0 34.10586 -13.060091)" gradientUnits="userSpaceOnUse" r="14.35" xlink:href="#b"/><linearGradient id="d" gradientUnits="userSpaceOnUse" x1="17.160885" x2="13.205508" xlink:href="#e" y1="21.540094" y2="16.899706"/><linearGradient id="e"><stop offset="0" stop-color="#97ca43"/><stop offset="1" stop-color="#97ca43" stop-opacity="0"/></linearGradient><linearGradient id="f" gradientUnits="userSpaceOnUse" x1="11.656183" x2="13.586248" y1="18.171713" y2="19.23148"><stop offset="0" stop-color="#458f41"/><stop offset="1" stop-color="#458f41" stop-opacity="0"/></linearGradient><linearGradient id="g" gradientUnits="userSpaceOnUse" x1="19.902828" x2="14.902203" y1="19.23148" y2="17.20026"><stop offset="0" stop-color="#e5edae"/><stop offset="1" stop-color="#e5edae" stop-opacity="0"/></linearGradient><linearGradient id="h" gradientUnits="userSpaceOnUse" x1="19.663462" x2="23.287384" xlink:href="#e" y1="13.089741" y2="5.046401"/><linearGradient id="i" gradientUnits="userSpaceOnUse" x1="17.496838" x2="17.321375" xlink:href="#j" y1="4.098434" y2="6.217969"/><linearGradient id="j"><stop offset="0" stop-color="#459743"/><stop offset="1" stop-color="#459743" stop-opacity="0"/></linearGradient><linearGradient id="k" gradientUnits="userSpaceOnUse" x1="19.339172" x2="18.286409" xlink:href="#j" y1="4.716632" y2="6.306283"/><linearGradient id="l" gradientUnits="userSpaceOnUse" x1="19.514631" x2="21.79562" y1="15.66756" y2="11.516805"><stop offset="0" stop-color="#e6edae"/><stop offset="1" stop-color="#e6edae" stop-opacity="0"/></linearGradient><linearGradient id="m" gradientUnits="userSpaceOnUse" x1="17.550945" x2="20.646738" xlink:href="#e" y1="12.030865" y2="6.987673"/><linearGradient id="n" gradientUnits="userSpaceOnUse" x1="19.55179" x2="18.759596" y1="5.068775" y2="6.34825"><stop offset="0" stop-color="#46873f"/><stop offset="1" stop-color="#46873f" stop-opacity="0"/></linearGradient><linearGradient id="o" gradientUnits="userSpaceOnUse" x1="20.123928" x2="21.972382" y1="15.569291" y2="10.980831"><stop offset="0" stop-color="#e6eead"/><stop offset="1" stop-color="#e6eead" stop-opacity="0"/></linearGradient><path d="m112.1289 29.16992-6.442383-8.751953-6.44043 8.751953h-2.65232l7.74707-10.57324-7.074219-9.60498h2.65332l5.766602 7.833984 5.763672-7.833984h2.649414l-7.071289 9.604004 7.75 10.57422h-2.649394zm-50.21972-.0039-7.75293-10.57032 7.072266-9.604004h-2.650395l-5.766602 7.839844-5.760742-7.839844h-2.647461l7.072266 9.604004-7.751953 10.57031h2.65332l6.4375-8.748047 6.44043 8.748047h2.65429zm16.4873-5.89014c0 3.633789-2.753906 5.894043-7.194336 5.894043l-8.191406-.0039063v-9.452148h-4.191406c.3037109-.4550781 1.108398-1.564941 1.459961-2.022949h2.731445v-8.699211h8.191406c6.083008 0 6.557617 4.199219 6.557617 5.490234 0 1.742676-.9580078 3.243652-2.424805 4.038086.44531.20361.90234.47998 1.32227.8418 1.1416.97607 1.73925 2.32519 1.73925 3.91406m-13.12011-5.58496h5.925781c2.728516 0 4.291992-1.265137 4.291992-3.385254 0-2.805664-2.6875-3.209961-4.291992-3.209961h-5.925781v6.595208zm10.86035 5.54297c0-2.895996-2.683594-3.518066-4.93457-3.518066h-5.925781v7.346191h5.925781c1.84473 0 4.93457-.50244 4.93457-3.82812m22.52637-4.16602c0 6.212891-3.948242 10.54395-9.607422 10.54395-5.666992 0-9.62793-4.331055-9.62793-10.54395 0-6.205078 3.960938-10.54004 9.62793-10.54004 5.65917.000002 9.60742 4.33496 9.60742 10.54004m-2.29102 0c0-4.951172-3.009766-8.408203-7.316406-8.408203-4.317383 0-7.342773 3.457031-7.342773 8.408203s3.025391 8.412109 7.342773 8.412109c4.30664 0 7.31641-3.46094 7.31641-8.41211" fill="#92c83e"/><path d="m159.0547 8.51709c-4.790039 0-7.540039 3.855957-7.540039 10.57812 0 6.717773 2.75 10.57812 7.540039 10.57812 2.731445 0 4.760742-1.193359 6.049805-3.53125 1.224609-2.23291 1.484375-5.065918 1.484375-7.046875 0-3.17918-.7364-10.57811-7.5342-10.57811m0 19.34619c-1.367188 0-2.501953-.4462891-3.376953-1.313965-1.921875-1.931152-2.210938-5.496094-2.210938-7.454102 0-2.637207.546875-8.766113 5.587891-8.766113 5.040039 0 5.581055 6.128906 5.581055 8.766113-.0001 2.63671-.5411 8.76806-5.5811 8.76806m-16.1875-12.35986c-2.1875 0-4.186523 1.066894-5.416016 2.825684.2578125-3.831055 1.488281-8 5.645508-8 2.325195 0 4.085938 1.516113 4.481445 3.866211l.0605469.3686523h1.930664l-.0507813-.4897461c-.3818359-3.42627-2.842773-5.557129-6.421875-5.557129-6.327148 0-7.652344 6.277344-7.652344 11.54004 0 6.291016 2.566406 9.616211 7.422852 9.616211 3.987305 0 7.003906-3.020996 7.003906-7.025391 0-4.14355-2.9492-7.14452-7.0039-7.14452m0 12.35986c-2.859375 0-5.103516-2.292969-5.103516-5.215332 0-3.041992 2.199219-5.331543 5.103516-5.331543 1.305664 0 2.541016.5097656 3.461914 1.43457 1.010742 1.004394 1.581055 2.424316 1.581055 3.896973 0 2.92236-2.2149 5.21533-5.043 5.21533m-8.9414-4.43017c0 3.769043-2.804688 6.203125-7.140625 6.203125-2.351562 0-4.262695-.7001953-5.526367-2.024902-1.208984-1.268066-1.796875-3.082031-1.700195-5.25l.0146484-.4130859h1.956055l-.0136719.4521484c-.0683594 1.632812.3769531 3.001953 1.291016 3.953613.9257813.9599609 2.305664 1.475098 3.978516 1.475098 2.581055 0 5.181641-1.512695 5.181641-4.395996 0-1.190918-.3642578-2.138672-1.094727-2.819824-.8808594-.8271484-2.300781-1.202148-4.094727-1.221191h-1.360352c-.0117188-.4726563-.0117188-1.417969 0-1.907715.4960938-.0024414 1.009766-.0102539 1.352539-.0102539.9541016 0 2.80957-.2397461 3.813477-1.205078.6132813-.59375.9365234-1.405762.9365234-2.407715 0-2.344238-2.382812-3.569336-4.734375-3.569336-2.329102 0-4.086914 1.518066-4.483398 3.870117l-.0595703.3652344h-1.942383l.0566406-.4873047c.3857422-3.424805 2.852539-5.559082 6.428711-5.559082 2.185547 0 4.116211.6772461 5.294922 1.854004.9189453.9243164 1.391602 2.108398 1.391602 3.526367 0 2.008789-1.084961 3.708984-2.791016 4.493652 2.0071.80517 3.2454 2.6953 3.2454 5.07812" fill="#9d9fa2"/><path d="m168.4541 26.96143c0 .3833008-.1308594.7050781-.3925781.9663086-.2578125.2607422-.5800781.3920898-.9609375.3920898-.3867188 0-.7070313-.1264648-.9609375-.3813477-.2558594-.2548828-.3828125-.578125-.3828125-.9648438 0-.3833008.1308594-.7060547.390625-.9663086.2558594-.2636719.578125-.3935547.9628906-.3935547.3769531 0 .6933594.125.9492188.375.2617.25683.3945.58202.3945.97265m-.1621.0083c0-.3452148-.1132813-.6313477-.3457031-.8632813-.2285156-.2290039-.5097656-.3417969-.8398438-.3417969-.34375 0-.6269531.1137695-.8515625.3457031-.2265625.2333984-.3378906.5170898-.3378906.859375 0 .3457031.1152344.6357422.3496094.8666992.2285156.2290039.5078125.3452148.8398438.3452148.328125 0 .6074219-.1162109.8378906-.347168.2344-.2329.3477-.52098.3477-.86473m-.5352.85107h-.2890625l-.1875-.4169922c-.09375-.2104492-.1953125-.3144531-.3066406-.3144531h-.1582031v.7314453h-.2382813v-1.740234h.4824219c.2128906 0 .375.0488281.484375.1450195.09375.0849609.140625.1938477.140625.3300781 0 .1186523-.0390625.21875-.1132813.3037109-.0742188.0854492-.1835938.1420898-.3203125.1704102v.0068359c.09375.0219727.1894531.1289063.2832031.3208008l.2227.46336zm-.3281-1.2373c0-.1010742-.0273438-.1708984-.0839844-.2167969-.0605469-.0512695-.1660156-.0761719-.3164063-.0761719h-.2128906v.5942383h.2597656c.2324 0 .3535-.10108.3535-.30127" fill="#9d9fa2"/><path d="m37.683334 17.391666c0 8.150803-6.424714 14.758334-14.35 14.758334s-14.3500004-6.607531-14.3500004-14.758334c0-8.150802 6.4247144-14.7583328 14.3500004-14.7583328s14.35 6.6075308 14.35 14.7583328z" fill="#666" transform="matrix(1.1755978 0 0 1.1301272 -4.473115 -.637552)"/><path d="m37.683334 17.391666c0 8.150803-6.424714 14.758334-14.35 14.758334s-14.3500004-6.607531-14.3500004-14.758334c0-8.150802 6.4247144-14.7583328 14.3500004-14.7583328s14.35 6.6075308 14.35 14.7583328z" fill="url(#a)" transform="matrix(1.1755978 0 0 1.1301272 -4.473115 -.637552)"/><path d="m37.683334 17.391666c0 8.150803-6.424714 14.758334-14.35 14.758334s-14.3500004-6.607531-14.3500004-14.758334c0-8.150802 6.4247144-14.7583328 14.3500004-14.7583328s14.35 6.6075308 14.35 14.7583328z" fill="url(#c)" transform="matrix(1.1755978 0 0 1.1301272 -4.473115 -.637552)"/><path d="m17.75 10.65625c-1.847688 2.256035-9.5926641 11.425091-8.90625 17.625.4783172.610018 1.0047273 1.180327 1.5625 1.71875-.08129-4.745696 5.4515-9.824588 9.769368-13.658449z" fill="#00a54d" transform="matrix(1.0075011 0 0 1.0008426 .80871727143 1.04708934523)"/><g fill="#97ca43" transform="matrix(1.0075011 0 0 1.0008426 -7.46984571969 2.12097543986)"><path d="m17.75 10.65625c-1.847688 2.256035-9.5926641 11.425091-8.90625 17.625.4783172.610018 1.0047273 1.180327 1.5625 1.71875-.08129-4.745696 5.4515-9.824588 9.769368-13.658449z" fill="url(#d)" transform="translate(8.216927 -1.072982)"/><path d="m17.75 10.65625c-1.847688 2.256035-9.5926641 11.425091-8.90625 17.625.4783172.610018 1.0047273 1.180327 1.5625 1.71875-.08129-4.745696 5.4515-9.824588 9.769368-13.658449z" fill="url(#f)" transform="translate(8.216927 -1.072982)"/><path d="m17.75 10.65625c-1.847688 2.256035-9.5926641 11.425091-8.90625 17.625.4783172.610018 1.0047273 1.180327 1.5625 1.71875-.08129-4.745696 5.4515-9.824588 9.769368-13.658449z" fill="url(#g)" transform="translate(8.216927 -1.072982)"/></g><g transform="matrix(1.0075011 0 0 1.0008426 .66949299112 1.07847890537)"><path d="m13.34375 3.75c-.965665.5849225-1.862933 1.2722918-2.6875 2.03125 2.656255.5079752 5.32084 2.8624365 6.78125 4.8125 1.272411 2.001434 1.963367 3.836737 2.861547 5.731248.608132-.518349 1.226492-1.046358 1.896265-1.586717l-.0039-8.2265622c-1.979009-1.2377932-5.249787-2.8669635-8.816412-2.7617188-.0076.00461-.02361-.00463-.03125 0z" fill="#02a74d"/><path d="m13.34375 3.75c-.965665.5849225-1.862933 1.2722918-2.6875 2.03125 2.656255.5079752 5.32084 2.8624365 6.78125 4.8125 1.272411 2.001434 1.963367 3.836737 2.861547 5.731248.608132-.518349 1.226492-1.046358 1.896265-1.586717l-.0039-8.2265622c-1.979009-1.2377932-5.249787-2.8669635-8.816412-2.7617188-.0076.00461-.02361-.00463-.03125 0z" fill="url(#h)"/><path d="m13.34375 3.75c-.965665.5849225-1.862933 1.2722918-2.6875 2.03125 2.656255.5079752 5.32084 2.8624365 6.78125 4.8125 1.272411 2.001434 1.963367 3.836737 2.861547 5.731248.608132-.518349 1.226492-1.046358 1.896265-1.586717l-.0039-8.2265622c-1.979009-1.2377932-5.249787-2.8669635-8.816412-2.7617188-.0076.00461-.02361-.00463-.03125 0z" fill="url(#i)"/><path d="m13.34375 3.75c-.965665.5849225-1.862933 1.2722918-2.6875 2.03125 2.656255.5079752 5.32084 2.8624365 6.78125 4.8125 1.272411 2.001434 1.963367 3.836737 2.861547 5.731248.608132-.518349 1.226492-1.046358 1.896265-1.586717l-.0039-8.2265622c-1.979009-1.2377932-5.249787-2.8669635-8.816412-2.7617188-.0076.00461-.02361-.00463-.03125 0z" fill="url(#k)"/><path d="m13.34375 3.75c-.965665.5849225-1.862933 1.2722918-2.6875 2.03125 2.656255.5079752 5.32084 2.8624365 6.78125 4.8125 1.272411 2.001434 1.963367 3.836737 2.861547 5.731248.608132-.518349 1.226492-1.046358 1.896265-1.586717l-.0039-8.2265622c-1.979009-1.2377932-5.249787-2.8669635-8.816412-2.7617188-.0076.00461-.02361-.00463-.03125 0z" fill="url(#l)"/></g><path d="m17.75 10.65625c-1.847688 2.256035-9.5926641 11.425091-8.90625 17.625.4783172.610018 1.0047273 1.180327 1.5625 1.71875-.08129-4.745696 5.4515-9.824588 9.769368-13.658449z" fill="#00a54d" transform="matrix(-1.0075011 0 0 1.0008426 45.12269372857 1.04708934523)"/><g fill="#97ca43" transform="matrix(-1.0075011 0 0 1.0008426 53.40125671969 2.12097543986)"><path d="m17.75 10.65625c-1.847688 2.256035-9.5926641 11.425091-8.90625 17.625.4783172.610018 1.0047273 1.180327 1.5625 1.71875-.08129-4.745696 5.4515-9.824588 9.769368-13.658449z" fill="url(#d)" transform="translate(8.216927 -1.072982)"/><path d="m17.75 10.65625c-1.847688 2.256035-9.5926641 11.425091-8.90625 17.625.4783172.610018 1.0047273 1.180327 1.5625 1.71875-.08129-4.745696 5.4515-9.824588 9.769368-13.658449z" fill="url(#f)" transform="translate(8.216927 -1.072982)"/><path d="m17.75 10.65625c-1.847688 2.256035-9.5926641 11.425091-8.90625 17.625.4783172.610018 1.0047273 1.180327 1.5625 1.71875-.08129-4.745696 5.4515-9.824588 9.769368-13.658449z" fill="url(#g)" transform="translate(8.216927 -1.072982)"/></g><path d="m13.34375 3.75c-.965665.5849225-1.862933 1.2722918-2.6875 2.03125 2.656255.5079752 5.32084 2.8624365 6.78125 4.8125 1.272411 2.001434 1.963367 3.836737 2.861547 5.731248.608132-.518349 1.226492-1.046358 1.896265-1.586717l-.0039-8.2265622c-1.979009-1.2377932-5.249787-2.8669635-8.816412-2.7617188-.0076.00461-.02361-.00463-.03125 0z" fill="#02a74d" transform="matrix(-1.0041673 0 0 1.0016853 45.22287772169 1.07532094652)"/><path d="m13.34375 3.75c-.965665.5849225-1.862933 1.2722918-2.6875 2.03125 2.656255.5079752 5.32084 2.8624365 6.78125 4.8125 1.272411 2.001434 1.963367 3.836737 2.861547 5.731248.608132-.518349 1.226492-1.046358 1.896265-1.586717l-.0039-8.2265622c-1.979009-1.2377932-5.249787-2.8669635-8.816412-2.7617188-.0076.00461-.02361-.00463-.03125 0z" fill="url(#m)" transform="matrix(-1.0041673 0 0 1.0016853 45.22287772169 1.07532094652)"/><path d="m13.34375 3.75c-.965665.5849225-1.862933 1.2722918-2.6875 2.03125 2.656255.5079752 5.32084 2.8624365 6.78125 4.8125 1.272411 2.001434 1.963367 3.836737 2.861547 5.731248.608132-.518349 1.226492-1.046358 1.896265-1.586717l-.0039-8.2265622c-1.979009-1.2377932-5.249787-2.8669635-8.816412-2.7617188-.0076.00461-.02361-.00463-.03125 0z" fill="url(#n)" transform="matrix(-1.0041673 0 0 1.0016853 45.22287772169 1.07532094652)"/><path d="m13.34375 3.75c-.965665.5849225-1.862933 1.2722918-2.6875 2.03125 2.656255.5079752 5.32084 2.8624365 6.78125 4.8125 1.272411 2.001434 1.963367 3.836737 2.861547 5.731248.608132-.518349 1.226492-1.046358 1.896265-1.586717l-.0039-8.2265622c-1.979009-1.2377932-5.249787-2.8669635-8.816412-2.7617188-.0076.00461-.02361-.00463-.03125 0z" fill="url(#o)" transform="matrix(-1.0041673 0 0 1.0016853 45.22287772169 1.07532094652)"/></svg>